<svg xmlns="http://www.w3.org/2000/svg" viewBox="55 50 310 470">
  <path fill="#b08a72" d="M 350.5,131.5 C 353.181,153.296 348.347,173.296 336,191.5C 320.079,214.755 300.245,233.922 276.5,249C 274.06,250.303 271.56,251.47 269,252.5C 268.5,252.167 268,251.833 267.5,251.5C 277.728,235.985 283.894,218.985 286,200.5C 268.323,236.715 245.156,268.882 216.5,297C 215.833,297.667 215.167,297.667 214.5,297C 223.779,280.947 232.946,264.78 242,248.5C 245.594,241.988 248.594,235.322 251,228.5C 237.416,247.325 225.082,266.991 214,287.5C 198.098,324.453 189.765,363.119 189,403.5C 188.195,420.544 188.362,437.544 189.5,454.5C 188.747,458.517 188.08,462.684 187.5,467C 189.102,471.396 188.769,475.563 186.5,479.5C 188.066,481.962 188.399,484.462 187.5,487C 188.078,488.417 189.078,489.25 190.5,489.5C 191.488,494.64 191.821,499.974 191.5,505.5C 190.178,505.67 189.011,505.337 188,504.5C 183.651,496.141 180.151,487.474 177.5,478.5C 177.611,477.883 177.944,477.383 178.5,477C 176.11,471.162 174.11,465.162 172.5,459C 172.833,458.667 173.167,458.333 173.5,458C 171.815,454.965 170.315,451.798 169,448.5C 168.612,443.548 167.779,438.715 166.5,434C 166.833,433.667 167.167,433.333 167.5,433C 166.426,432.261 165.759,431.261 165.5,430C 166.079,427.946 166.412,425.946 166.5,424C 166.162,420.746 165.162,417.912 163.5,415.5C 162.662,415.158 162.328,414.492 162.5,413.5C 163.216,411.444 163.883,409.277 164.5,407C 164.711,404.831 164.378,402.497 163.5,400C 164.249,392.346 164.916,384.679 165.5,377C 164.851,374.081 164.851,371.248 165.5,368.5C 165.006,366.974 164.339,365.641 163.5,364.5C 163.99,361.345 164.656,358.345 165.5,355.5C 166.714,351.307 167.88,346.974 169,342.5C 172.438,340.629 173.271,337.962 171.5,334.5C 171.79,332.956 172.456,331.623 173.5,330.5C 172.71,325.592 172.71,320.258 173.5,314.5C 179.373,289.87 188.373,266.536 200.5,244.5C 201.922,244.291 203.255,243.791 204.5,243C 204.167,242.667 203.833,242.333 203.5,242C 204.46,240.581 205.293,239.081 206,237.5C 206.333,237.833 206.667,238.167 207,238.5C 207.422,236.645 207.922,234.811 208.5,233C 214.736,222.98 222.236,213.147 231,203.5C 231.791,202.255 232.291,200.922 232.5,199.5C 243.519,186.979 256.185,176.479 270.5,168C 306.023,137.579 314.689,100.745 296.5,57.5C 297.723,56.3861 299.056,56.2195 300.5,57C 320.577,66.4128 334.41,81.5795 342,102.5C 345.325,112.153 348.158,121.82 350.5,131.5 Z"/>
  <path fill="#b08a72" d="M 252.5,144.5 C 253.552,144.351 254.552,144.517 255.5,145C 241.749,154.083 229.916,165.249 220,178.5C 204.251,205 188.251,231.333 172,257.5C 150.41,283.729 122.576,298.896 88.5,303C 79.8654,304.312 71.1987,304.645 62.5,304C 96.9207,300.879 125.921,286.879 149.5,262C 146.123,261.548 142.789,260.882 139.5,260C 138.549,259.282 138.383,258.449 139,257.5C 154.396,249.445 167.396,238.445 178,224.5C 178.688,223.668 178.521,223.002 177.5,222.5C 174.607,223.74 171.773,225.074 169,226.5C 168.308,225.975 167.808,225.308 167.5,224.5C 183.403,198.426 203.403,175.926 227.5,157C 235.378,151.728 243.712,147.561 252.5,144.5 Z"/>
</svg>
