<?xml version="1.0" encoding="UTF-8" standalone="no"?>
<svg
   version="1.1"
   width="420px"
   height="539px"
   style="shape-rendering:geometricPrecision; text-rendering:geometricPrecision; image-rendering:optimizeQuality; fill-rule:evenodd; clip-rule:evenodd"
   id="svg74"
   sodipodi:docname="dibujo.svg"
   inkscape:version="1.4.2 (f4327f4, 2025-05-13)"
   xmlns:inkscape="http://www.inkscape.org/namespaces/inkscape"
   xmlns:sodipodi="http://sodipodi.sourceforge.net/DTD/sodipodi-0.dtd"
   xmlns="http://www.w3.org/2000/svg"
   xmlns:svg="http://www.w3.org/2000/svg">
  <defs
     id="defs74" />
  <sodipodi:namedview
     id="namedview74"
     pagecolor="#000000"
     bordercolor="#000000"
     borderopacity="0.25"
     inkscape:showpageshadow="2"
     inkscape:pageopacity="0.0"
     inkscape:pagecheckerboard="0"
     inkscape:deskcolor="#d1d1d1"
     inkscape:zoom="0.88842219"
     inkscape:cx="-203.16917"
     inkscape:cy="220.05304"
     inkscape:window-width="1920"
     inkscape:window-height="1009"
     inkscape:window-x="1912"
     inkscape:window-y="-8"
     inkscape:window-maximized="1"
     inkscape:current-layer="svg74" />
  <g
     id="g1">
    <path
       style="opacity:1"
       fill="#00faf9"
       d="M 20.5,18.5 C 21.8333,19.1667 21.8333,19.1667 20.5,18.5 Z"
       id="path1" />
  </g>
  <g
     id="g2">
    <path
       style="opacity:1"
       fill="#00faf9"
       d="M 104.5,18.5 C 105.833,19.1667 105.833,19.1667 104.5,18.5 Z"
       id="path2" />
  </g>
  <g
     id="g3">
    <path
       style="opacity:1"
       fill="#00faf9"
       d="M 293.5,25.5 C 294.833,26.1667 294.833,26.1667 293.5,25.5 Z"
       id="path3" />
  </g>
  <g
     id="g4">
    <path
       style="opacity:1"
       fill="#00faf9"
       d="M 71.5,26.5 C 72.8333,27.1667 72.8333,27.1667 71.5,26.5 Z"
       id="path4" />
  </g>
  <g
     id="g5">
    <path
       style="opacity:1"
       fill="#00faf9"
       d="M 38.5,28.5 C 39.8333,29.1667 39.8333,29.1667 38.5,28.5 Z"
       id="path5" />
  </g>
  <g
     id="g6">
    <path
       style="opacity:1"
       fill="#00faf9"
       d="M 80.5,38.5 C 81.8333,39.1667 81.8333,39.1667 80.5,38.5 Z"
       id="path6" />
  </g>
  <g
     id="g7">
    <path
       style="opacity:1"
       fill="#00faf9"
       d="M 227.5,40.5 C 228.833,41.1667 228.833,41.1667 227.5,40.5 Z"
       id="path7" />
  </g>
  <g
     id="g8">
    <path
       style="opacity:1"
       fill="#00faf9"
       d="M 269.5,41.5 C 270.833,42.1667 270.833,42.1667 269.5,41.5 Z"
       id="path8" />
  </g>
  <g
     id="g9">
    <path
       style="opacity:1"
       fill="#00faf9"
       d="M 398.5,49.5 C 399.833,50.1667 399.833,50.1667 398.5,49.5 Z"
       id="path9" />
  </g>
  <g
     id="g10">
    <path
       style="opacity:1"
       fill="#00faf9"
       d="M 257.5,51.5 C 258.833,52.1667 258.833,52.1667 257.5,51.5 Z"
       id="path10" />
  </g>
  <g
     id="g11">
    <path
       style="opacity:1"
       fill="#00faf9"
       d="M 209.5,55.5 C 210.833,56.1667 210.833,56.1667 209.5,55.5 Z"
       id="path11" />
  </g>
  <g
     id="g12">
    <path
       style="opacity:1"
       fill="#00faf9"
       d="M 377.5,56.5 C 378.833,57.1667 378.833,57.1667 377.5,56.5 Z"
       id="path12" />
  </g>
  <g
     id="g13">
    <path
       style="opacity:1"
       fill="#00faf9"
       d="M 77.5,57.5 C 78.8333,58.1667 78.8333,58.1667 77.5,57.5 Z"
       id="path13" />
  </g>
  <g
     id="g14">
    <path
       style="opacity:1"
       fill="#f8f9f9"
       d="m 336,191.5 c -15.921,23.255 -35.755,42.422 -59.5,57.5 -2.44,1.303 -4.94,2.47 -7.5,3.5 -0.5,-0.333 -1,-0.667 -1.5,-1 10.228,-15.515 16.394,-32.515 18.5,-51 -17.677,36.215 -40.844,68.382 -69.5,96.5 -0.667,0.667 -1.333,0.667 -2,0 9.279,-16.053 18.446,-32.22 27.5,-48.5 3.594,-6.512 6.594,-13.178 9,-20 -13.584,18.825 -25.918,38.491 -37,59 -15.902,36.953 -24.235,75.619 -25,116 -0.805,17.044 -0.638,34.044 0.5,51 0.26374,6.0753 2.321,45.474 2,51 -14.39385,1.85095 -75.23227,-177.2093 36.01187,-305.79614 13.07742,-15.11616 38.03754,-26.79603 49.05642,-39.53736 C 300.03154,133.03553 316.44772,112.3167 296.5,57.5 c -0.12005,-1.564043 1.12626,-1.760557 2.57026,-0.980057 C 347.0423,79.010914 367.09282,145.6578 336,191.5 Z"
       id="path14"
       sodipodi:nodetypes="cccccccccccccssccc" />
  </g>
  <g
     id="g15">
    <path
       style="opacity:1"
       fill="#00faf9"
       d="M 410.5,65.5 C 411.833,66.1667 411.833,66.1667 410.5,65.5 Z"
       id="path15" />
  </g>
  <g
     id="g16">
    <path
       style="opacity:1"
       fill="#00faf9"
       d="M 323.5,69.5 C 324.833,70.1667 324.833,70.1667 323.5,69.5 Z"
       id="path16" />
  </g>
  <g
     id="g17">
    <path
       style="opacity:1"
       fill="#00faf9"
       d="M 179.5,78.5 C 180.833,79.1667 180.833,79.1667 179.5,78.5 Z"
       id="path17" />
  </g>
  <g
     id="g18">
    <path
       style="opacity:1"
       fill="#00faf9"
       d="M 83.5,81.5 C 84.8333,82.1667 84.8333,82.1667 83.5,81.5 Z"
       id="path18" />
  </g>
  <g
     id="g19">
    <path
       style="opacity:1"
       fill="#00faf9"
       d="M 221.5,86.5 C 222.833,87.1667 222.833,87.1667 221.5,86.5 Z"
       id="path19" />
  </g>
  <g
     id="g20">
    <path
       style="opacity:1"
       fill="#00faf9"
       d="M 392.5,97.5 C 393.833,98.1667 393.833,98.1667 392.5,97.5 Z"
       id="path20" />
  </g>
  <g
     id="g21">
    <path
       style="opacity:1"
       fill="#00faf9"
       d="M 26.5,101.5 C 27.8333,102.167 27.8333,102.167 26.5,101.5 Z"
       id="path21" />
  </g>
  <g
     id="g22">
    <path
       style="opacity:1"
       fill="#00faf9"
       d="M 287.5,107.5 C 288.833,108.167 288.833,108.167 287.5,107.5 Z"
       id="path22" />
  </g>
  <g
     id="g23" />
  <g
     id="g24">
    <path
       style="opacity:1"
       fill="#00faf9"
       d="M 20.5,144.5 C 21.8333,145.167 21.8333,145.167 20.5,144.5 Z"
       id="path24" />
  </g>
  <g
     id="g25">
    <path
       style="opacity:1"
       fill="#00faf9"
       d="M 170.5,144.5 C 171.833,145.167 171.833,145.167 170.5,144.5 Z"
       id="path25" />
  </g>
  <g
     id="g26">
    <path
       style="opacity:1"
       fill="#00faf9"
       d="M 182.5,156.5 C 183.833,157.167 183.833,157.167 182.5,156.5 Z"
       id="path26" />
  </g>
  <g
     id="g27">
    <path
       style="opacity:1"
       fill="#f6f9f9"
       d="M 252.5,144.5 C 253.552,144.351 254.552,144.517 255.5,145C 241.749,154.083 229.916,165.249 220,178.5C 204.251,205 188.251,231.333 172,257.5C 150.41,283.729 122.576,298.896 88.5,303C 79.8654,304.312 71.1987,304.645 62.5,304C 96.9207,300.879 125.921,286.879 149.5,262C 146.123,261.548 142.789,260.882 139.5,260C 138.549,259.282 138.383,258.449 139,257.5C 154.396,249.445 167.396,238.445 178,224.5C 178.688,223.668 178.521,223.002 177.5,222.5C 174.607,223.74 171.773,225.074 169,226.5C 168.308,225.975 167.808,225.308 167.5,224.5C 183.403,198.426 203.403,175.926 227.5,157C 235.378,151.728 243.712,147.561 252.5,144.5 Z"
       id="path27" />
  </g>
  <g
     id="g28">
    <path
       style="opacity:1"
       fill="#00faf9"
       d="M 386.5,189.5 C 387.833,190.167 387.833,190.167 386.5,189.5 Z"
       id="path28" />
  </g>
  <g
     id="g29">
    <path
       style="opacity:1"
       fill="#00faf9"
       d="M 53.5,203.5 C 54.8333,204.167 54.8333,204.167 53.5,203.5 Z"
       id="path29" />
  </g>
  <g
     id="g30">
    <path
       style="opacity:1"
       fill="#00faf9"
       d="M 407.5,209.5 C 408.833,210.167 408.833,210.167 407.5,209.5 Z"
       id="path30" />
  </g>
  <g
     id="g32">
    <path
       style="opacity:1"
       fill="#00faf9"
       d="M 80.5,232.5 C 81.8333,233.167 81.8333,233.167 80.5,232.5 Z"
       id="path32" />
  </g>
  <g
     id="g33">
    <path
       style="opacity:1"
       fill="#00faf9"
       d="M 266.5,242.5 C 267.833,243.167 267.833,243.167 266.5,242.5 Z"
       id="path33" />
  </g>
  <g
     id="g34">
    <path
       style="opacity:1"
       fill="#00faf9"
       d="M 29.5,243.5 C 30.8333,244.167 30.8333,244.167 29.5,243.5 Z"
       id="path34" />
  </g>
  <g
     id="g35">
    <path
       style="opacity:1"
       fill="#00faf9"
       d="M 305.5,247.5 C 306.833,248.167 306.833,248.167 305.5,247.5 Z"
       id="path35" />
  </g>
  <g
     id="g36">
    <path
       style="opacity:1"
       fill="#00faf9"
       d="M 56.5,253.5 C 57.8333,254.167 57.8333,254.167 56.5,253.5 Z"
       id="path36" />
  </g>
  <g
     id="g37">
    <path
       style="opacity:1"
       fill="#00faf9"
       d="M 80.5,256.5 C 81.8333,257.167 81.8333,257.167 80.5,256.5 Z"
       id="path37" />
  </g>
  <g
     id="g38">
    <path
       style="opacity:1"
       fill="#00faf9"
       d="M 62.5,267.5 C 63.8333,268.167 63.8333,268.167 62.5,267.5 Z"
       id="path38" />
  </g>
  <g
     id="g39">
    <path
       style="opacity:1"
       fill="#00faf9"
       d="M 251.5,272.5 C 252.833,273.167 252.833,273.167 251.5,272.5 Z"
       id="path39" />
  </g>
  <g
     id="g41">
    <path
       style="opacity:1"
       fill="#00faf9"
       d="M 47.5,289.5 C 48.8333,290.167 48.8333,290.167 47.5,289.5 Z"
       id="path41" />
  </g>
  <g
     id="g42">
    <path
       style="opacity:1"
       fill="#00faf9"
       d="M 32.5,291.5 C 33.8333,292.167 33.8333,292.167 32.5,291.5 Z"
       id="path42" />
  </g>
  <g
     id="g43">
    <path
       style="opacity:1"
       fill="#00faf9"
       d="M 149.5,291.5 C 150.833,292.167 150.833,292.167 149.5,291.5 Z"
       id="path43" />
  </g>
  <g
     id="g44">
    <path
       style="opacity:1"
       fill="#00faf9"
       d="M 143.5,293.5 C 144.833,294.167 144.833,294.167 143.5,293.5 Z"
       id="path44" />
  </g>
  <g
     id="g45">
    <path
       style="opacity:1"
       fill="#00faf9"
       d="M 335.5,293.5 C 336.833,294.167 336.833,294.167 335.5,293.5 Z"
       id="path45" />
  </g>
  <g
     id="g46">
    <path
       style="opacity:1"
       fill="#00faf9"
       d="M 239.5,294.5 C 240.833,295.167 240.833,295.167 239.5,294.5 Z"
       id="path46" />
  </g>
  <g
     id="g47">
    <path
       style="opacity:1"
       fill="#00faf9"
       d="M 317.5,295.5 C 318.833,296.167 318.833,296.167 317.5,295.5 Z"
       id="path47" />
  </g>
  <g
     id="g48">
    <path
       style="opacity:1"
       fill="#00faf9"
       d="M 161.5,302.5 C 162.833,303.167 162.833,303.167 161.5,302.5 Z"
       id="path48" />
  </g>
  <g
     id="g49">
    <path
       style="opacity:1"
       fill="#00faf9"
       d="M 371.5,303.5 C 372.833,304.167 372.833,304.167 371.5,303.5 Z"
       id="path49" />
  </g>
  <g
     id="g50">
    <path
       style="opacity:1"
       fill="#00faf9"
       d="M 110.5,312.5 C 111.833,313.167 111.833,313.167 110.5,312.5 Z"
       id="path50" />
  </g>
  <g
     id="g52">
    <path
       style="opacity:1"
       fill="#00faf9"
       d="M 212.5,330.5 C 213.833,331.167 213.833,331.167 212.5,330.5 Z"
       id="path52" />
  </g>
  <g
     id="g54">
    <path
       style="opacity:1"
       fill="#00faf9"
       d="M 236.5,365.5 C 237.833,366.167 237.833,366.167 236.5,365.5 Z"
       id="path54" />
  </g>
  <g
     id="g56">
    <path
       style="opacity:1"
       fill="#00faf9"
       d="M 260.5,381.5 C 261.833,382.167 261.833,382.167 260.5,381.5 Z"
       id="path56" />
  </g>
  <g
     id="g58">
    <path
       style="opacity:1"
       fill="#00faf9"
       d="M 299.5,408.5 C 300.833,409.167 300.833,409.167 299.5,408.5 Z"
       id="path58" />
  </g>
  <g
     id="g59">
    <path
       style="opacity:1"
       fill="#00faf9"
       d="M 86.5,439.5 C 87.8333,440.167 87.8333,440.167 86.5,439.5 Z"
       id="path59" />
  </g>
  <g
     id="g60">
    <path
       style="opacity:1"
       fill="#00faf9"
       d="M 233.5,447.5 C 234.833,448.167 234.833,448.167 233.5,447.5 Z"
       id="path60" />
  </g>
  <g
     id="g61">
    <path
       style="opacity:1"
       fill="#00faf9"
       d="M 290.5,447.5 C 291.833,448.167 291.833,448.167 290.5,447.5 Z"
       id="path61" />
  </g>
  <g
     id="g62">
    <path
       style="opacity:1"
       fill="#00faf9"
       d="M 410.5,450.5 C 411.833,451.167 411.833,451.167 410.5,450.5 Z"
       id="path62" />
  </g>
  <g
     id="g64">
    <path
       style="opacity:1"
       fill="#00faf9"
       d="M 167.5,464.5 C 168.833,465.167 168.833,465.167 167.5,464.5 Z"
       id="path64" />
  </g>
  <g
     id="g65">
    <path
       style="opacity:1"
       fill="#00faf9"
       d="M 56.5,469.5 C 57.8333,470.167 57.8333,470.167 56.5,469.5 Z"
       id="path65" />
  </g>
  <g
     id="g67">
    <path
       style="opacity:1"
       fill="#00faf9"
       d="M 230.5,494.5 C 231.833,495.167 231.833,495.167 230.5,494.5 Z"
       id="path67" />
  </g>
  <g
     id="g68">
    <path
       style="opacity:1"
       fill="#00faf9"
       d="M 194.5,510.5 C 195.833,511.167 195.833,511.167 194.5,510.5 Z"
       id="path68" />
  </g>
  <g
     id="g69">
    <path
       style="opacity:1"
       fill="#00faf9"
       d="M 170.5,513.5 C 171.833,514.167 171.833,514.167 170.5,513.5 Z"
       id="path69" />
  </g>
  <g
     id="g70">
    <path
       style="opacity:1"
       fill="#00faf9"
       d="M 107.5,517.5 C 108.833,518.167 108.833,518.167 107.5,517.5 Z"
       id="path70" />
  </g>
  <g
     id="g71">
    <path
       style="opacity:1"
       fill="#00faf9"
       d="M 260.5,521.5 C 261.833,522.167 261.833,522.167 260.5,521.5 Z"
       id="path71" />
  </g>
  <g
     id="g72">
    <path
       style="opacity:1"
       fill="#00faf9"
       d="M 353.5,521.5 C 354.833,522.167 354.833,522.167 353.5,521.5 Z"
       id="path72" />
  </g>
  <g
     id="g73">
    <path
       style="opacity:1"
       fill="#00faf9"
       d="M 200.5,526.5 C 201.833,527.167 201.833,527.167 200.5,526.5 Z"
       id="path73" />
  </g>
  <g
     id="g74">
    <path
       style="opacity:1"
       fill="#00faf9"
       d="M 254.5,532.5 C 255.833,533.167 255.833,533.167 254.5,532.5 Z"
       id="path74" />
  </g>
</svg>
